<svg xmlns="http://www.w3.org/2000/svg" >
    <symbol id="bus" viewBox="0 0 18 19">
      <g id="Vector_Smart_Object-2" data-name="Vector Smart Object">
        <g id="Group_196" data-name="Group 196">
          <g id="Group_189" data-name="Group 189">
            <path id="Path_125" data-name="Path 125" d="M962.573,925.863H946.228a.818.818,0,0,1-.828-.808V914.881a5.735,5.735,0,0,1,5.793-5.659h6.414a5.734,5.734,0,0,1,5.793,5.659v10.173a.817.817,0,0,1-.828.808Zm-15.517-1.617h14.69v-9.365a4.1,4.1,0,0,0-4.138-4.042h-6.414a4.1,4.1,0,0,0-4.138,4.042v9.365Z" transform="translate(-945.401 -909.222)" fill="#f2eee8"/>
          </g>
          <g id="Group_192" data-name="Group 192" transform="translate(1.689 15.765)">
            <g id="Group_190" data-name="Group 190">
              <path id="Path_126" data-name="Path 126" d="M949.572,928.222c-1.555,0-2.483-.493-2.483-1.32V925.8a.828.828,0,0,1,1.655,0v.724a4.036,4.036,0,0,0,1.655,0V925.8a.828.828,0,0,1,1.655,0V926.9c0,.826-.928,1.32-2.483,1.32Z" transform="translate(-947.09 -924.987)" fill="#f2eee8"/>
            </g>
            <g id="Group_191" data-name="Group 191" transform="translate(9.655)">
              <path id="Path_127" data-name="Path 127" d="M959.227,928.222c-1.555,0-2.483-.493-2.483-1.32V925.8a.828.828,0,0,1,1.655,0v.724a4.036,4.036,0,0,0,1.655,0V925.8a.828.828,0,0,1,1.655,0V926.9c0,.826-.928,1.32-2.483,1.32Z" transform="translate(-956.744 -924.987)" fill="#f2eee8"/>
            </g>
          </g>
          <g id="Group_193" data-name="Group 193" transform="translate(4.172 2.359)">
            <path id="Path_128" data-name="Path 128" d="M958.4,913.2h-8a.809.809,0,1,1,0-1.617h8a.809.809,0,1,1,0,1.617Z" transform="translate(-949.572 -911.581)" fill="#f2eee8"/>
          </g>
          <g id="Group_194" data-name="Group 194" transform="translate(3.829 10.985)">
            <path id="Path_129" data-name="Path 129" d="M950.47,920.207a1.211,1.211,0,1,0,1.238,1.21,1.224,1.224,0,0,0-1.238-1.21Z" transform="translate(-949.23 -920.207)" fill="#f2eee8"/>
            <path id="Path_130" data-name="Path 130" d="M958.332,920.207a1.211,1.211,0,1,0,1.238,1.21,1.224,1.224,0,0,0-1.238-1.21Z" transform="translate(-949.23 -920.207)" fill="#f2eee8"/>
          </g>
          <g id="Group_195" data-name="Group 195" transform="translate(2.069 4.447)">
            <path id="Path_131" data-name="Path 131" d="M960.09,919.631H948.711a1.228,1.228,0,0,1-1.241-1.213v-3.537a1.228,1.228,0,0,1,1.241-1.213H960.09a1.229,1.229,0,0,1,1.241,1.213v3.537a1.229,1.229,0,0,1-1.241,1.213Zm-11.379-5.154a.41.41,0,0,0-.414.4v3.537a.41.41,0,0,0,.414.4H960.09a.409.409,0,0,0,.414-.4v-3.537a.41.41,0,0,0-.414-.4Z" transform="translate(-947.47 -913.669)" fill="#f2eee8"/>
          </g>
        </g>
      </g>
      <path id="Color_Overlay" data-name="Color Overlay" d="M11.344,17.681v-1.04H6.655v1.04c0,.826-.928,1.319-2.483,1.319s-2.482-.493-2.482-1.319v-1.04H.828A.818.818,0,0,1,0,15.832V5.659A5.734,5.734,0,0,1,5.793,0h6.413A5.734,5.734,0,0,1,18,5.659V15.832a.818.818,0,0,1-.827.809h-.864v1.04c0,.826-.927,1.319-2.482,1.319S11.344,18.507,11.344,17.681ZM13,17.3a4.047,4.047,0,0,0,1.655,0v-.656H13Zm-9.654,0a3.59,3.59,0,0,0,.827.086A3.58,3.58,0,0,0,5,17.3v-.656H3.344ZM1.655,5.659v9.365h14.69V5.659a4.1,4.1,0,0,0-4.138-4.043H5.793A4.1,4.1,0,0,0,1.655,5.659ZM11.691,12.2a1.239,1.239,0,1,1,1.24,1.211A1.224,1.224,0,0,1,11.691,12.2Zm-7.861,0a1.239,1.239,0,1,1,1.239,1.211A1.224,1.224,0,0,1,3.829,12.2ZM3.31,10.409A1.228,1.228,0,0,1,2.069,9.2V5.659A1.229,1.229,0,0,1,3.31,4.446H14.69a1.23,1.23,0,0,1,1.241,1.213V9.2a1.229,1.229,0,0,1-1.241,1.213ZM2.9,5.659V9.2a.41.41,0,0,0,.414.4H14.69a.409.409,0,0,0,.414-.4V5.659a.41.41,0,0,0-.414-.4H3.31A.41.41,0,0,0,2.9,5.659ZM5,3.976A.809.809,0,1,1,5,2.359h8a.809.809,0,1,1,0,1.617Z" transform="translate(0 0)" fill="#fff"/>
  </symbol>
</svg>
