<svg id="Vector_Smart_Object" xmlns="http://www.w3.org/2000/svg" width="29.457" height="19.001" >
  <symbol id="university" viewBox="0 0 29.457 19.001">
    <g transform="translate(0 0)">
      <g>
        <g  data-name="Group 253">
          <path  d="M1054.973,1321.294a1.167,1.167,0,0,1-.463-.1l-13.021-5.659a1.157,1.157,0,0,1,0-2.126l13.021-5.659a1.165,1.165,0,0,1,.928,0l13.019,5.659a1.16,1.16,0,0,1,0,2.126l-13.019,5.659a1.175,1.175,0,0,1-.466.1Zm-10.111-6.818,10.111,4.394,10.111-4.394-10.111-4.394-10.111,4.394Z" transform="translate(-1040.79 -1307.658)" fill="#f2eee8"/>
        </g>
        <g  transform="translate(3.482 7.536)">
          <path  d="M1054.973,1326.659a18.238,18.238,0,0,1-10.187-3.162,1.158,1.158,0,0,1-.515-.962v-6.182a1.162,1.162,0,0,1,2.324,0v5.551a15.667,15.667,0,0,0,16.755,0v-5.551a1.162,1.162,0,0,1,2.324,0v6.182a1.161,1.161,0,0,1-.512.962,18.242,18.242,0,0,1-10.189,3.162Z" transform="translate(-1044.271 -1315.194)" fill="#f2eee8"/>
        </g>
        <g  transform="translate(27.257 6.183)">
          <path  d="M1068.627,1323.5a.581.581,0,0,1-.581-.58v-8.5a.581.581,0,0,1,1.162,0v8.5a.58.58,0,0,1-.581.58Z" transform="translate(-1068.046 -1313.842)" fill="#f2eee8"/>
        </g>
        <g  transform="translate(26.676 10.047)">
          <path  d="M1068.627,1324.081a1.16,1.16,0,0,1-1.162-1.159v-4.057a1.162,1.162,0,0,1,2.324,0v4.057a1.16,1.16,0,0,1-1.162,1.159Z" transform="translate(-1067.465 -1317.706)" fill="#f2eee8"/>
        </g>
      </g>
    </g>
    <path  d="M4,15.838a1.16,1.16,0,0,1-.515-.962V9.09L.7,7.881a1.157,1.157,0,0,1,0-2.126L13.721.1a1.165,1.165,0,0,1,.929,0L27.668,5.756a1.155,1.155,0,0,1,.615.634.58.58,0,0,1,.136.373V10.2A1.159,1.159,0,0,1,29,11.207v4.056a1.162,1.162,0,0,1-2.324,0V11.207a1.156,1.156,0,0,1,.581-1V8.061l-2.372,1.03v5.785a1.161,1.161,0,0,1-.513.962A18.243,18.243,0,0,1,14.183,19,18.242,18.242,0,0,1,4,15.838Zm1.81-1.593a15.666,15.666,0,0,0,16.755,0V10.1L14.649,13.54a1.168,1.168,0,0,1-.929,0L5.806,10.1ZM4.072,6.819l10.112,4.394L24.295,6.819,14.183,2.424Z" transform="translate(0.457)" fill="#fff"/>
  </symbol>
</svg>
