<svg xmlns="http://www.w3.org/2000/svg" >
  <symbol id="house" viewBox="0 0 24.128 19">
    <g id="Vector_Smart_Object" data-name="Vector Smart Object" transform="translate(-0.277)">
      <g id="Vector_Smart_Object-2" data-name="Vector Smart Object" transform="translate(0.277 0)">
        <g id="Group_185" data-name="Group 185">
          <g id="Group_183" data-name="Group 183" transform="translate(2.78 6.966)">
            <path id="Path_121" data-name="Path 121" d="M111.739,692.653h-5.9a.948.948,0,0,1-.922-.971v-6.123h-2.955v6.123a.948.948,0,0,1-.922.971h-5.9a.948.948,0,0,1-.922-.971v-10.09a.923.923,0,1,1,1.844,0v9.119h4.054v-6.123a.947.947,0,0,1,.922-.971h4.8a.947.947,0,0,1,.922.971v6.123h4.054v-9.119a.923.923,0,1,1,1.844,0v10.09a.948.948,0,0,1-.922.971Z" transform="translate(-94.221 -680.62)" fill="#f2eee8"/>
          </g>
          <g id="Group_184" data-name="Group 184">
            <path id="Path_122" data-name="Path 122" d="M114.517,683.954a.879.879,0,0,1-.535-.182l-10.54-7.953L92.9,683.772a.893.893,0,0,1-1.287-.224,1.006,1.006,0,0,1,.214-1.355l11.078-8.358a.884.884,0,0,1,1.073,0l11.077,8.358a1,1,0,0,1,.213,1.355.906.906,0,0,1-.752.406Z" transform="translate(-91.441 -673.653)" fill="#f2eee8"/>
          </g>
        </g>
      </g>
      <path id="Color_Overlay" data-name="Color Overlay" d="M14.4,19a.948.948,0,0,1-.922-.971V11.905H10.522v6.124A.948.948,0,0,1,9.6,19H3.7a.948.948,0,0,1-.922-.971V9.123l-1.32,1A.894.894,0,0,1,.171,9.895,1.006,1.006,0,0,1,.386,8.54L11.464.182a.884.884,0,0,1,1.074,0L23.614,8.54a1,1,0,0,1,.213,1.355.906.906,0,0,1-.752.407.878.878,0,0,1-.535-.182l-1.321-1v8.907A.948.948,0,0,1,20.3,19Zm0-9.038a.947.947,0,0,1,.922.971v6.124h4.055V7.938a1.042,1.042,0,0,1,.018-.193L12,2.166,4.606,7.745a1.042,1.042,0,0,1,.018.193v9.119H8.677V10.933A.946.946,0,0,1,9.6,9.962Z" transform="translate(0.405)" fill="#fff"/>
    </g>
  </symbol>
  
</svg>
