<svg xmlns="http://www.w3.org/2000/svg" >
  <symbol id="house" viewBox="0 0 24.128 19">
    <g id="Vector_Smart_Object" data-name="Vector Smart Object" transform="translate(-0.277)">
      <g id="Vector_Smart_Object-2" data-name="Vector Smart Object" transform="translate(0.277 0)">
        <g id="Group_185" data-name="Group 185">
          <g id="Group_183" data-name="Group 183" transform="translate(2.78 6.966)">
            <path id="Path_121" data-name="Path 121" d="M111.739,692.653h-5.9a.948.948,0,0,1-.922-.971v-6.123h-2.955v6.123a.948.948,0,0,1-.922.971h-5.9a.948.948,0,0,1-.922-.971v-10.09a.923.923,0,1,1,1.844,0v9.119h4.054v-6.123a.947.947,0,0,1,.922-.971h4.8a.947.947,0,0,1,.922.971v6.123h4.054v-9.119a.923.923,0,1,1,1.844,0v10.09a.948.948,0,0,1-.922.971Z" transform="translate(-94.221 -680.62)" fill="#f2eee8"/>
          </g>
          <g id="Group_184" data-name="Group 184">
            <path id="Path_122" data-name="Path 122" d="M114.517,683.954a.879.879,0,0,1-.535-.182l-10.54-7.953L92.9,683.772a.893.893,0,0,1-1.287-.224,1.006,1.006,0,0,1,.214-1.355l11.078-8.358a.884.884,0,0,1,1.073,0l11.077,8.358a1,1,0,0,1,.213,1.355.906.906,0,0,1-.752.406Z" transform="translate(-91.441 -673.653)" fill="#f2eee8"/>
          </g>
        </g>
      </g>
      <path id="Color_Overlay" data-name="Color Overlay" d="M14.4,19a.948.948,0,0,1-.922-.971V11.905H10.522v6.124A.948.948,0,0,1,9.6,19H3.7a.948.948,0,0,1-.922-.971V9.123l-1.32,1A.894.894,0,0,1,.171,9.895,1.006,1.006,0,0,1,.386,8.54L11.464.182a.884.884,0,0,1,1.074,0L23.614,8.54a1,1,0,0,1,.213,1.355.906.906,0,0,1-.752.407.878.878,0,0,1-.535-.182l-1.321-1v8.907A.948.948,0,0,1,20.3,19Zm0-9.038a.947.947,0,0,1,.922.971v6.124h4.055V7.938a1.042,1.042,0,0,1,.018-.193L12,2.166,4.606,7.745a1.042,1.042,0,0,1,.018.193v9.119H8.677V10.933A.946.946,0,0,1,9.6,9.962Z" transform="translate(0.405)" fill="#fff"/>
    </g>
  </symbol>
  <symbol id="lady" viewBox="0 0 16.001 19">
    <g id="Vector_Smart_Object" data-name="Vector Smart Object" transform="translate(-0.984 0)">
      <g id="Vector_Smart_Object-2" data-name="Vector Smart Object" transform="translate(0.984 0)">
        <g id="Group_211" data-name="Group 211">
          <g id="Group_205" data-name="Group 205" transform="translate(0.181)">
            <path id="Path_139" data-name="Path 139" d="M854.617,1062.112a.9.9,0,0,1-.374-.081,12.328,12.328,0,0,0-1.986-.7l.46-1.62a14.342,14.342,0,0,1,1.473.469,7.624,7.624,0,0,0,.6-2.972c0-3.788-2.723-6.87-6.069-6.87s-6.067,3.082-6.067,6.87a7.584,7.584,0,0,0,.6,2.971,14.583,14.583,0,0,1,1.471-.468l.46,1.62a12.3,12.3,0,0,0-1.986.7.894.894,0,0,1-1.147-.361,9.166,9.166,0,0,1-1.146-4.464c0-4.714,3.507-8.55,7.818-8.55s7.82,3.835,7.82,8.55a9.158,9.158,0,0,1-1.148,4.465.884.884,0,0,1-.773.442Z" transform="translate(-840.9 -1048.656)" fill="#f2eee8"/>
          </g>
          <g id="Group_206" data-name="Group 206" transform="translate(2.642 4.119)">
            <path id="Path_140" data-name="Path 140" d="M848.718,1063.087a3.694,3.694,0,0,1-.441-.025c-2.315-.245-4.06-2.337-4.786-5.738a7.16,7.16,0,0,1-.13-1.041.41.41,0,0,1,.118-.312.447.447,0,0,1,.318-.132h2.4l.393-2.7a.441.441,0,0,1,.868,0l.393,2.7h.614l.131-1.267a.432.432,0,0,1,.434-.379h0a.431.431,0,0,1,.436.379l.134,1.267h4.039a.441.441,0,0,1,.318.132.4.4,0,0,1,.12.312,7.2,7.2,0,0,1-.131,1.037,8.946,8.946,0,0,1-2,4.285l-.01.012c-.068.073-.14.141-.21.208l-.394-.217.313.293c-.152.139-.248.213-.346.288l-.347-.27.267.333c-.1.077-.208.143-.315.208l-.074.049c-.1.06-.207.113-.316.165l-.106.052c-.082.039-.192.078-.3.117l-.086.035c-.083.027-.16.047-.239.067l-.224-.377.127.4c-.009,0-.081.022-.091.024-.094.02-.186.034-.282.047l-.151.022c-.116.013-.235.017-.352.019l-.086.005Zm.339-.859.188.4-.062-.416c.074-.009.144-.019.214-.034l.208.38-.113-.406c.121-.031.18-.046.237-.065.163-.06.243-.09.32-.125.156-.077.238-.117.319-.165.151-.094.232-.148.314-.208.149-.115.228-.176.306-.246l.092-.087c.084-.08.144-.138.2-.2h0l.006-.006a8.246,8.246,0,0,0,1.8-3.892c.031-.152.057-.31.077-.476h-3.958a.46.46,0,0,1-.173-.034.449.449,0,0,1-.172.034h-1.39a.429.429,0,0,1-.432-.362l-.012-.082-.011.082a.432.432,0,0,1-.434.362h-2.307c.02.167.046.324.077.48.644,3.016,2.112,4.866,4.023,5.07a3.207,3.207,0,0,0,.344.019c.159-.007.25-.008.341-.019Z" transform="translate(-843.36 -1052.775)" fill="#f2eee8"/>
          </g>
          <g id="Group_209" data-name="Group 209" transform="translate(0 13.325)">
            <g id="Group_207" data-name="Group 207">
              <path id="Path_141" data-name="Path 141" d="M842.469,1067.656h-1.751c0-3.129,2.825-5.674,6.3-5.674v1.68a4.3,4.3,0,0,0-4.547,3.994Z" transform="translate(-840.718 -1061.981)" fill="#f2eee8"/>
            </g>
            <g id="Group_208" data-name="Group 208" transform="translate(9.702)">
              <path id="Path_142" data-name="Path 142" d="M856.719,1067.656h-1.751a4.3,4.3,0,0,0-4.547-3.994v-1.68c3.473,0,6.3,2.545,6.3,5.674Z" transform="translate(-850.421 -1061.981)" fill="#f2eee8"/>
            </g>
          </g>
          <g id="Group_210" data-name="Group 210" transform="translate(5.64 8.649)">
            <path id="Path_143" data-name="Path 143" d="M846.871,1057.3a.493.493,0,1,0,.513.492.5.5,0,0,0-.513-.492Z" transform="translate(-846.358 -1057.305)" fill="#f2eee8"/>
            <path id="Path_144" data-name="Path 144" d="M850.564,1057.3a.493.493,0,1,0,.513.492.5.5,0,0,0-.513-.492Z" transform="translate(-846.358 -1057.305)" fill="#f2eee8"/>
          </g>
        </g>
      </g>
    </g>
  </symbol>
    <symbol id="university" viewBox="0 0 29.457 19.001">
    <g transform="translate(0 0)">
      <g>
        <g  data-name="Group 253">
          <path  d="M1054.973,1321.294a1.167,1.167,0,0,1-.463-.1l-13.021-5.659a1.157,1.157,0,0,1,0-2.126l13.021-5.659a1.165,1.165,0,0,1,.928,0l13.019,5.659a1.16,1.16,0,0,1,0,2.126l-13.019,5.659a1.175,1.175,0,0,1-.466.1Zm-10.111-6.818,10.111,4.394,10.111-4.394-10.111-4.394-10.111,4.394Z" transform="translate(-1040.79 -1307.658)" fill="#f2eee8"/>
        </g>
        <g  transform="translate(3.482 7.536)">
          <path  d="M1054.973,1326.659a18.238,18.238,0,0,1-10.187-3.162,1.158,1.158,0,0,1-.515-.962v-6.182a1.162,1.162,0,0,1,2.324,0v5.551a15.667,15.667,0,0,0,16.755,0v-5.551a1.162,1.162,0,0,1,2.324,0v6.182a1.161,1.161,0,0,1-.512.962,18.242,18.242,0,0,1-10.189,3.162Z" transform="translate(-1044.271 -1315.194)" fill="#f2eee8"/>
        </g>
        <g  transform="translate(27.257 6.183)">
          <path  d="M1068.627,1323.5a.581.581,0,0,1-.581-.58v-8.5a.581.581,0,0,1,1.162,0v8.5a.58.58,0,0,1-.581.58Z" transform="translate(-1068.046 -1313.842)" fill="#f2eee8"/>
        </g>
        <g  transform="translate(26.676 10.047)">
          <path  d="M1068.627,1324.081a1.16,1.16,0,0,1-1.162-1.159v-4.057a1.162,1.162,0,0,1,2.324,0v4.057a1.16,1.16,0,0,1-1.162,1.159Z" transform="translate(-1067.465 -1317.706)" fill="#f2eee8"/>
        </g>
      </g>
    </g>
    <path  d="M4,15.838a1.16,1.16,0,0,1-.515-.962V9.09L.7,7.881a1.157,1.157,0,0,1,0-2.126L13.721.1a1.165,1.165,0,0,1,.929,0L27.668,5.756a1.155,1.155,0,0,1,.615.634.58.58,0,0,1,.136.373V10.2A1.159,1.159,0,0,1,29,11.207v4.056a1.162,1.162,0,0,1-2.324,0V11.207a1.156,1.156,0,0,1,.581-1V8.061l-2.372,1.03v5.785a1.161,1.161,0,0,1-.513.962A18.243,18.243,0,0,1,14.183,19,18.242,18.242,0,0,1,4,15.838Zm1.81-1.593a15.666,15.666,0,0,0,16.755,0V10.1L14.649,13.54a1.168,1.168,0,0,1-.929,0L5.806,10.1ZM4.072,6.819l10.112,4.394L24.295,6.819,14.183,2.424Z" transform="translate(0.457)" fill="#fff"/>
  </symbol>
  <symbol id="note" viewBox="0 0 19 19">
    <g transform="translate(0 0)">
      <g >
        <g >
          <g  transform="translate(0 3.697)">
            <g  transform="translate(0 9.38)">
              <path d="M279.3,1325.723a1.962,1.962,0,0,1-2.131-1.505c-.28-1.512,1.279-3.137,2.887-3.9a4.953,4.953,0,0,1,2.078-.519,1.961,1.961,0,0,1,2.13,1.506c.281,1.513-1.279,3.137-2.888,3.9a4.94,4.94,0,0,1-2.077.518Zm2.835-4.31a3.424,3.424,0,0,0-1.395.365c-1.32.626-2.074,1.7-1.992,2.143.026.149.359.189.552.189a3.413,3.413,0,0,0,1.393-.364c1.323-.626,2.077-1.7,1.995-2.143-.028-.149-.36-.189-.553-.189Z" transform="translate(-277.135 -1319.8)" fill="#f2eee8"/>
            </g>
            <g  transform="translate(5.556)">
              <path  d="M284.3,1321.449h-1.6V1310.42h1.6v11.029Z" transform="translate(-282.692 -1310.42)" fill="#f2eee8"/>
            </g>
          </g>
          <g  transform="translate(11.838 0.806)">
            <g  transform="translate(0 9.381)">
              <path  d="M291.135,1322.833a1.96,1.96,0,0,1-2.129-1.506c-.28-1.511,1.279-3.137,2.887-3.9a4.952,4.952,0,0,1,2.08-.518,1.961,1.961,0,0,1,2.13,1.506c.279,1.511-1.281,3.136-2.89,3.9a4.941,4.941,0,0,1-2.078.518Zm2.838-4.309a3.411,3.411,0,0,0-1.4.365c-1.32.625-2.074,1.7-1.992,2.142.026.15.359.189.55.189a3.422,3.422,0,0,0,1.395-.364c1.322-.626,2.077-1.7,1.995-2.143-.028-.15-.36-.189-.551-.189Z" transform="translate(-288.973 -1316.91)" fill="#f2eee8"/>
            </g>
            <g  transform="translate(5.555)">
              <path d="M296.133,1318.559h-1.6v-11.03h1.6v11.03Z" transform="translate(-294.528 -1307.529)" fill="#f2eee8"/>
            </g>
          </g>
          <g  transform="translate(5.556)">
            <path  d="M283.494,1314.963a.8.8,0,0,1-.5-.172.812.812,0,0,1-.306-.635v-3.735a.806.806,0,0,1,.613-.784l11.836-2.891a.8.8,0,0,1,.992.784v3.736a.8.8,0,0,1-.612.784l-11.836,2.891a.808.808,0,0,1-.19.023Zm.8-3.908v2.075l10.231-2.5v-2.076l-10.231,2.5Z" transform="translate(-282.692 -1306.723)" fill="#f2eee8"/>
          </g>
        </g>
        <g >
          <g  transform="translate(0 3.697)">
            <g  transform="translate(0 9.38)">
              <path d="M279.3,1325.723a1.962,1.962,0,0,1-2.131-1.505c-.28-1.512,1.279-3.137,2.887-3.9a4.953,4.953,0,0,1,2.078-.519,1.961,1.961,0,0,1,2.13,1.506c.281,1.513-1.279,3.137-2.888,3.9a4.94,4.94,0,0,1-2.077.518Zm2.835-4.31a3.424,3.424,0,0,0-1.395.365c-1.32.626-2.074,1.7-1.992,2.143.026.149.359.189.552.189a3.413,3.413,0,0,0,1.393-.364c1.323-.626,2.077-1.7,1.995-2.143-.028-.149-.36-.189-.553-.189Z" transform="translate(-277.135 -1319.8)" fill="#f2eee8"/>
            </g>
            <g  transform="translate(5.556)">
              <path  d="M284.3,1321.449h-1.6V1310.42h1.6v11.029Z" transform="translate(-282.692 -1310.42)" fill="#f2eee8"/>
            </g>
          </g>
          <g  transform="translate(11.838 0.806)">
            <g  transform="translate(0 9.381)">
              <path  d="M291.135,1322.833a1.96,1.96,0,0,1-2.129-1.506c-.28-1.511,1.279-3.137,2.887-3.9a4.952,4.952,0,0,1,2.08-.518,1.961,1.961,0,0,1,2.13,1.506c.279,1.511-1.281,3.136-2.89,3.9a4.941,4.941,0,0,1-2.078.518Zm2.838-4.309a3.411,3.411,0,0,0-1.4.365c-1.32.625-2.074,1.7-1.992,2.142.026.15.359.189.55.189a3.422,3.422,0,0,0,1.395-.364c1.322-.626,2.077-1.7,1.995-2.143-.028-.15-.36-.189-.551-.189Z" transform="translate(-288.973 -1316.91)" fill="#f2eee8"/>
            </g>
            <g transform="translate(5.555)">
              <path  d="M296.133,1318.559h-1.6v-11.03h1.6v11.03Z" transform="translate(-294.528 -1307.529)" fill="#f2eee8"/>
            </g>
          </g>
          <g  transform="translate(5.556)">
            <path  d="M283.494,1314.963a.8.8,0,0,1-.5-.172.812.812,0,0,1-.306-.635v-3.735a.806.806,0,0,1,.613-.784l11.836-2.891a.8.8,0,0,1,.992.784v3.736a.8.8,0,0,1-.612.784l-11.836,2.891a.808.808,0,0,1-.19.023Zm.8-3.908v2.075l10.231-2.5v-2.076l-10.231,2.5Z" transform="translate(-282.692 -1306.723)" fill="#f2eee8"/>
          </g>
        </g>
      </g>
    </g>
    <path d="M.032,17.5A1.983,1.983,0,0,1,0,17.138c0-1.4,1.437-2.84,2.92-3.542A4.931,4.931,0,0,1,5,13.077a3.075,3.075,0,0,1,.558.049V3.7a.806.806,0,0,1,.613-.785L18.005.022a.815.815,0,0,1,.687.149A.809.809,0,0,1,19,.806h0v11.03h-.01a2.008,2.008,0,0,1,.012.207c.007,1.407-1.437,2.846-2.922,3.549A4.94,4.94,0,0,1,14,16.109a1.875,1.875,0,0,1-2.161-1.861c0-1.4,1.437-2.841,2.92-3.543a4.956,4.956,0,0,1,2.08-.517,3.12,3.12,0,0,1,.554.049V5.569L7.161,8.068v6.658H7.149a2.011,2.011,0,0,1,.012.208c.008,1.407-1.435,2.845-2.922,3.549A4.957,4.957,0,0,1,2.163,19,1.962,1.962,0,0,1,.032,17.5ZM3.6,15.054c-1.257.6-2,1.606-2,2.077a.5.5,0,0,0,.006.067c.026.149.359.188.552.188a3.415,3.415,0,0,0,1.393-.365c1.261-.6,2-1.6,2-2.076a.449.449,0,0,0-.006-.065c-.028-.15-.36-.191-.553-.191A3.435,3.435,0,0,0,3.6,15.054Zm11.839-2.89c-1.258.6-2,1.606-2,2.076a.486.486,0,0,0,.006.066c.026.15.358.189.55.189a3.42,3.42,0,0,0,1.4-.364c1.26-.6,2-1.6,2-2.077a.5.5,0,0,0-.006-.066c-.029-.15-.361-.189-.552-.189A3.436,3.436,0,0,0,15.442,12.164ZM7.161,4.332V6.406l10.232-2.5V1.832Z" transform="translate(0)" fill="#fff"/>
  </symbol>
  <symbol id="bus" viewBox="0 0 18 19">
    <g id="Vector_Smart_Object-2" data-name="Vector Smart Object">
      <g id="Group_196" data-name="Group 196">
        <g id="Group_189" data-name="Group 189">
          <path id="Path_125" data-name="Path 125" d="M962.573,925.863H946.228a.818.818,0,0,1-.828-.808V914.881a5.735,5.735,0,0,1,5.793-5.659h6.414a5.734,5.734,0,0,1,5.793,5.659v10.173a.817.817,0,0,1-.828.808Zm-15.517-1.617h14.69v-9.365a4.1,4.1,0,0,0-4.138-4.042h-6.414a4.1,4.1,0,0,0-4.138,4.042v9.365Z" transform="translate(-945.401 -909.222)" fill="#f2eee8"/>
        </g>
        <g id="Group_192" data-name="Group 192" transform="translate(1.689 15.765)">
          <g id="Group_190" data-name="Group 190">
            <path id="Path_126" data-name="Path 126" d="M949.572,928.222c-1.555,0-2.483-.493-2.483-1.32V925.8a.828.828,0,0,1,1.655,0v.724a4.036,4.036,0,0,0,1.655,0V925.8a.828.828,0,0,1,1.655,0V926.9c0,.826-.928,1.32-2.483,1.32Z" transform="translate(-947.09 -924.987)" fill="#f2eee8"/>
          </g>
          <g id="Group_191" data-name="Group 191" transform="translate(9.655)">
            <path id="Path_127" data-name="Path 127" d="M959.227,928.222c-1.555,0-2.483-.493-2.483-1.32V925.8a.828.828,0,0,1,1.655,0v.724a4.036,4.036,0,0,0,1.655,0V925.8a.828.828,0,0,1,1.655,0V926.9c0,.826-.928,1.32-2.483,1.32Z" transform="translate(-956.744 -924.987)" fill="#f2eee8"/>
          </g>
        </g>
        <g id="Group_193" data-name="Group 193" transform="translate(4.172 2.359)">
          <path id="Path_128" data-name="Path 128" d="M958.4,913.2h-8a.809.809,0,1,1,0-1.617h8a.809.809,0,1,1,0,1.617Z" transform="translate(-949.572 -911.581)" fill="#f2eee8"/>
        </g>
        <g id="Group_194" data-name="Group 194" transform="translate(3.829 10.985)">
          <path id="Path_129" data-name="Path 129" d="M950.47,920.207a1.211,1.211,0,1,0,1.238,1.21,1.224,1.224,0,0,0-1.238-1.21Z" transform="translate(-949.23 -920.207)" fill="#f2eee8"/>
          <path id="Path_130" data-name="Path 130" d="M958.332,920.207a1.211,1.211,0,1,0,1.238,1.21,1.224,1.224,0,0,0-1.238-1.21Z" transform="translate(-949.23 -920.207)" fill="#f2eee8"/>
        </g>
        <g id="Group_195" data-name="Group 195" transform="translate(2.069 4.447)">
          <path id="Path_131" data-name="Path 131" d="M960.09,919.631H948.711a1.228,1.228,0,0,1-1.241-1.213v-3.537a1.228,1.228,0,0,1,1.241-1.213H960.09a1.229,1.229,0,0,1,1.241,1.213v3.537a1.229,1.229,0,0,1-1.241,1.213Zm-11.379-5.154a.41.41,0,0,0-.414.4v3.537a.41.41,0,0,0,.414.4H960.09a.409.409,0,0,0,.414-.4v-3.537a.41.41,0,0,0-.414-.4Z" transform="translate(-947.47 -913.669)" fill="#f2eee8"/>
        </g>
      </g>
    </g>
    <path id="Color_Overlay" data-name="Color Overlay" d="M11.344,17.681v-1.04H6.655v1.04c0,.826-.928,1.319-2.483,1.319s-2.482-.493-2.482-1.319v-1.04H.828A.818.818,0,0,1,0,15.832V5.659A5.734,5.734,0,0,1,5.793,0h6.413A5.734,5.734,0,0,1,18,5.659V15.832a.818.818,0,0,1-.827.809h-.864v1.04c0,.826-.927,1.319-2.482,1.319S11.344,18.507,11.344,17.681ZM13,17.3a4.047,4.047,0,0,0,1.655,0v-.656H13Zm-9.654,0a3.59,3.59,0,0,0,.827.086A3.58,3.58,0,0,0,5,17.3v-.656H3.344ZM1.655,5.659v9.365h14.69V5.659a4.1,4.1,0,0,0-4.138-4.043H5.793A4.1,4.1,0,0,0,1.655,5.659ZM11.691,12.2a1.239,1.239,0,1,1,1.24,1.211A1.224,1.224,0,0,1,11.691,12.2Zm-7.861,0a1.239,1.239,0,1,1,1.239,1.211A1.224,1.224,0,0,1,3.829,12.2ZM3.31,10.409A1.228,1.228,0,0,1,2.069,9.2V5.659A1.229,1.229,0,0,1,3.31,4.446H14.69a1.23,1.23,0,0,1,1.241,1.213V9.2a1.229,1.229,0,0,1-1.241,1.213ZM2.9,5.659V9.2a.41.41,0,0,0,.414.4H14.69a.409.409,0,0,0,.414-.4V5.659a.41.41,0,0,0-.414-.4H3.31A.41.41,0,0,0,2.9,5.659ZM5,3.976A.809.809,0,1,1,5,2.359h8a.809.809,0,1,1,0,1.617Z" transform="translate(0 0)" fill="#fff"/>
  </symbol>
</svg>
