<svg xmlns="http://www.w3.org/2000/svg" width="16.001" height="19" >
  <symbol id="lady" viewBox="0 0 16.001 19">
    <g id="Vector_Smart_Object" data-name="Vector Smart Object" transform="translate(-0.984 0)">
      <g id="Vector_Smart_Object-2" data-name="Vector Smart Object" transform="translate(0.984 0)">
        <g id="Group_211" data-name="Group 211">
          <g id="Group_205" data-name="Group 205" transform="translate(0.181)">
            <path id="Path_139" data-name="Path 139" d="M854.617,1062.112a.9.9,0,0,1-.374-.081,12.328,12.328,0,0,0-1.986-.7l.46-1.62a14.342,14.342,0,0,1,1.473.469,7.624,7.624,0,0,0,.6-2.972c0-3.788-2.723-6.87-6.069-6.87s-6.067,3.082-6.067,6.87a7.584,7.584,0,0,0,.6,2.971,14.583,14.583,0,0,1,1.471-.468l.46,1.62a12.3,12.3,0,0,0-1.986.7.894.894,0,0,1-1.147-.361,9.166,9.166,0,0,1-1.146-4.464c0-4.714,3.507-8.55,7.818-8.55s7.82,3.835,7.82,8.55a9.158,9.158,0,0,1-1.148,4.465.884.884,0,0,1-.773.442Z" transform="translate(-840.9 -1048.656)" fill="#f2eee8"/>
          </g>
          <g id="Group_206" data-name="Group 206" transform="translate(2.642 4.119)">
            <path id="Path_140" data-name="Path 140" d="M848.718,1063.087a3.694,3.694,0,0,1-.441-.025c-2.315-.245-4.06-2.337-4.786-5.738a7.16,7.16,0,0,1-.13-1.041.41.41,0,0,1,.118-.312.447.447,0,0,1,.318-.132h2.4l.393-2.7a.441.441,0,0,1,.868,0l.393,2.7h.614l.131-1.267a.432.432,0,0,1,.434-.379h0a.431.431,0,0,1,.436.379l.134,1.267h4.039a.441.441,0,0,1,.318.132.4.4,0,0,1,.12.312,7.2,7.2,0,0,1-.131,1.037,8.946,8.946,0,0,1-2,4.285l-.01.012c-.068.073-.14.141-.21.208l-.394-.217.313.293c-.152.139-.248.213-.346.288l-.347-.27.267.333c-.1.077-.208.143-.315.208l-.074.049c-.1.06-.207.113-.316.165l-.106.052c-.082.039-.192.078-.3.117l-.086.035c-.083.027-.16.047-.239.067l-.224-.377.127.4c-.009,0-.081.022-.091.024-.094.02-.186.034-.282.047l-.151.022c-.116.013-.235.017-.352.019l-.086.005Zm.339-.859.188.4-.062-.416c.074-.009.144-.019.214-.034l.208.38-.113-.406c.121-.031.18-.046.237-.065.163-.06.243-.09.32-.125.156-.077.238-.117.319-.165.151-.094.232-.148.314-.208.149-.115.228-.176.306-.246l.092-.087c.084-.08.144-.138.2-.2h0l.006-.006a8.246,8.246,0,0,0,1.8-3.892c.031-.152.057-.31.077-.476h-3.958a.46.46,0,0,1-.173-.034.449.449,0,0,1-.172.034h-1.39a.429.429,0,0,1-.432-.362l-.012-.082-.011.082a.432.432,0,0,1-.434.362h-2.307c.02.167.046.324.077.48.644,3.016,2.112,4.866,4.023,5.07a3.207,3.207,0,0,0,.344.019c.159-.007.25-.008.341-.019Z" transform="translate(-843.36 -1052.775)" fill="#f2eee8"/>
          </g>
          <g id="Group_209" data-name="Group 209" transform="translate(0 13.325)">
            <g id="Group_207" data-name="Group 207">
              <path id="Path_141" data-name="Path 141" d="M842.469,1067.656h-1.751c0-3.129,2.825-5.674,6.3-5.674v1.68a4.3,4.3,0,0,0-4.547,3.994Z" transform="translate(-840.718 -1061.981)" fill="#f2eee8"/>
            </g>
            <g id="Group_208" data-name="Group 208" transform="translate(9.702)">
              <path id="Path_142" data-name="Path 142" d="M856.719,1067.656h-1.751a4.3,4.3,0,0,0-4.547-3.994v-1.68c3.473,0,6.3,2.545,6.3,5.674Z" transform="translate(-850.421 -1061.981)" fill="#f2eee8"/>
            </g>
          </g>
          <g id="Group_210" data-name="Group 210" transform="translate(5.64 8.649)">
            <path id="Path_143" data-name="Path 143" d="M846.871,1057.3a.493.493,0,1,0,.513.492.5.5,0,0,0-.513-.492Z" transform="translate(-846.358 -1057.305)" fill="#f2eee8"/>
            <path id="Path_144" data-name="Path 144" d="M850.564,1057.3a.493.493,0,1,0,.513.492.5.5,0,0,0-.513-.492Z" transform="translate(-846.358 -1057.305)" fill="#f2eee8"/>
          </g>
        </g>
      </g>
    </g>
  </symbol>
</svg>
