<svg  xmlns="http://www.w3.org/2000/svg" >
  <symbol viewBox="0 0 19 19">
  <g id="Vector_Smart_Object-2" data-name="Vector Smart Object" transform="translate(0 0)">
    <g >
      <g >
        <g  transform="translate(0 3.697)">
          <g  transform="translate(0 9.38)">
            <path d="M279.3,1325.723a1.962,1.962,0,0,1-2.131-1.505c-.28-1.512,1.279-3.137,2.887-3.9a4.953,4.953,0,0,1,2.078-.519,1.961,1.961,0,0,1,2.13,1.506c.281,1.513-1.279,3.137-2.888,3.9a4.94,4.94,0,0,1-2.077.518Zm2.835-4.31a3.424,3.424,0,0,0-1.395.365c-1.32.626-2.074,1.7-1.992,2.143.026.149.359.189.552.189a3.413,3.413,0,0,0,1.393-.364c1.323-.626,2.077-1.7,1.995-2.143-.028-.149-.36-.189-.553-.189Z" transform="translate(-277.135 -1319.8)" fill="#f2eee8"/>
          </g>
          <g  transform="translate(5.556)">
            <path  d="M284.3,1321.449h-1.6V1310.42h1.6v11.029Z" transform="translate(-282.692 -1310.42)" fill="#f2eee8"/>
          </g>
        </g>
        <g  transform="translate(11.838 0.806)">
          <g  transform="translate(0 9.381)">
            <path  d="M291.135,1322.833a1.96,1.96,0,0,1-2.129-1.506c-.28-1.511,1.279-3.137,2.887-3.9a4.952,4.952,0,0,1,2.08-.518,1.961,1.961,0,0,1,2.13,1.506c.279,1.511-1.281,3.136-2.89,3.9a4.941,4.941,0,0,1-2.078.518Zm2.838-4.309a3.411,3.411,0,0,0-1.4.365c-1.32.625-2.074,1.7-1.992,2.142.026.15.359.189.55.189a3.422,3.422,0,0,0,1.395-.364c1.322-.626,2.077-1.7,1.995-2.143-.028-.15-.36-.189-.551-.189Z" transform="translate(-288.973 -1316.91)" fill="#f2eee8"/>
          </g>
          <g  transform="translate(5.555)">
            <path d="M296.133,1318.559h-1.6v-11.03h1.6v11.03Z" transform="translate(-294.528 -1307.529)" fill="#f2eee8"/>
          </g>
        </g>
        <g  transform="translate(5.556)">
          <path  d="M283.494,1314.963a.8.8,0,0,1-.5-.172.812.812,0,0,1-.306-.635v-3.735a.806.806,0,0,1,.613-.784l11.836-2.891a.8.8,0,0,1,.992.784v3.736a.8.8,0,0,1-.612.784l-11.836,2.891a.808.808,0,0,1-.19.023Zm.8-3.908v2.075l10.231-2.5v-2.076l-10.231,2.5Z" transform="translate(-282.692 -1306.723)" fill="#f2eee8"/>
        </g>
      </g>
      <g >
        <g  transform="translate(0 3.697)">
          <g  transform="translate(0 9.38)">
            <path d="M279.3,1325.723a1.962,1.962,0,0,1-2.131-1.505c-.28-1.512,1.279-3.137,2.887-3.9a4.953,4.953,0,0,1,2.078-.519,1.961,1.961,0,0,1,2.13,1.506c.281,1.513-1.279,3.137-2.888,3.9a4.94,4.94,0,0,1-2.077.518Zm2.835-4.31a3.424,3.424,0,0,0-1.395.365c-1.32.626-2.074,1.7-1.992,2.143.026.149.359.189.552.189a3.413,3.413,0,0,0,1.393-.364c1.323-.626,2.077-1.7,1.995-2.143-.028-.149-.36-.189-.553-.189Z" transform="translate(-277.135 -1319.8)" fill="#f2eee8"/>
          </g>
          <g  transform="translate(5.556)">
            <path  d="M284.3,1321.449h-1.6V1310.42h1.6v11.029Z" transform="translate(-282.692 -1310.42)" fill="#f2eee8"/>
          </g>
        </g>
        <g  transform="translate(11.838 0.806)">
          <g  transform="translate(0 9.381)">
            <path  d="M291.135,1322.833a1.96,1.96,0,0,1-2.129-1.506c-.28-1.511,1.279-3.137,2.887-3.9a4.952,4.952,0,0,1,2.08-.518,1.961,1.961,0,0,1,2.13,1.506c.279,1.511-1.281,3.136-2.89,3.9a4.941,4.941,0,0,1-2.078.518Zm2.838-4.309a3.411,3.411,0,0,0-1.4.365c-1.32.625-2.074,1.7-1.992,2.142.026.15.359.189.55.189a3.422,3.422,0,0,0,1.395-.364c1.322-.626,2.077-1.7,1.995-2.143-.028-.15-.36-.189-.551-.189Z" transform="translate(-288.973 -1316.91)" fill="#f2eee8"/>
          </g>
          <g transform="translate(5.555)">
            <path  d="M296.133,1318.559h-1.6v-11.03h1.6v11.03Z" transform="translate(-294.528 -1307.529)" fill="#f2eee8"/>
          </g>
        </g>
        <g  transform="translate(5.556)">
          <path  d="M283.494,1314.963a.8.8,0,0,1-.5-.172.812.812,0,0,1-.306-.635v-3.735a.806.806,0,0,1,.613-.784l11.836-2.891a.8.8,0,0,1,.992.784v3.736a.8.8,0,0,1-.612.784l-11.836,2.891a.808.808,0,0,1-.19.023Zm.8-3.908v2.075l10.231-2.5v-2.076l-10.231,2.5Z" transform="translate(-282.692 -1306.723)" fill="#f2eee8"/>
        </g>
      </g>
    </g>
  </g>
  <path d="M.032,17.5A1.983,1.983,0,0,1,0,17.138c0-1.4,1.437-2.84,2.92-3.542A4.931,4.931,0,0,1,5,13.077a3.075,3.075,0,0,1,.558.049V3.7a.806.806,0,0,1,.613-.785L18.005.022a.815.815,0,0,1,.687.149A.809.809,0,0,1,19,.806h0v11.03h-.01a2.008,2.008,0,0,1,.012.207c.007,1.407-1.437,2.846-2.922,3.549A4.94,4.94,0,0,1,14,16.109a1.875,1.875,0,0,1-2.161-1.861c0-1.4,1.437-2.841,2.92-3.543a4.956,4.956,0,0,1,2.08-.517,3.12,3.12,0,0,1,.554.049V5.569L7.161,8.068v6.658H7.149a2.011,2.011,0,0,1,.012.208c.008,1.407-1.435,2.845-2.922,3.549A4.957,4.957,0,0,1,2.163,19,1.962,1.962,0,0,1,.032,17.5ZM3.6,15.054c-1.257.6-2,1.606-2,2.077a.5.5,0,0,0,.006.067c.026.149.359.188.552.188a3.415,3.415,0,0,0,1.393-.365c1.261-.6,2-1.6,2-2.076a.449.449,0,0,0-.006-.065c-.028-.15-.36-.191-.553-.191A3.435,3.435,0,0,0,3.6,15.054Zm11.839-2.89c-1.258.6-2,1.606-2,2.076a.486.486,0,0,0,.006.066c.026.15.358.189.55.189a3.42,3.42,0,0,0,1.4-.364c1.26-.6,2-1.6,2-2.077a.5.5,0,0,0-.006-.066c-.029-.15-.361-.189-.552-.189A3.436,3.436,0,0,0,15.442,12.164ZM7.161,4.332V6.406l10.232-2.5V1.832Z" transform="translate(0)" fill="#fff"/>
</symbol>
</svg>
