<svg xmlns="http://www.w3.org/2000/svg" >
	<symbol id="shopping" viewBox="0 0 46 46">
		<path d="M628.42,1946.71a3.87,3.87,0,1,1,3.87,3.87A3.87,3.87,0,0,1,628.42,1946.71Zm-20.329,0a3.87,3.87,0,1,1,3.87,3.87A3.87,3.87,0,0,1,608.09,1946.71Zm2.146-6.669a6.969,6.969,0,0,1-6.65-4.845l-7.208-22.352a.236.236,0,0,0-.225-.165h-1.576a2.428,2.428,0,0,1,0-4.856h1.576a5.077,5.077,0,0,1,4.846,3.532l7.208,22.352a2.128,2.128,0,0,0,2.029,1.476h26.186a2.429,2.429,0,0,1,0,4.857Zm1.651-7.811a1.657,1.657,0,0,1-1.579-1.154l-4.991-15.607a2.666,2.666,0,0,1,2.538-3.479h27.117a2.666,2.666,0,0,1,2.591,3.289l-3.76,15.68a1.659,1.659,0,0,1-1.613,1.271Z" transform="translate(-592.15 -1907.824)" fill="#262626"/>
	</symbol>

	<symbol  id="quality" viewBox="0 0 46 46" >
		<path  d="M619.2,2067.923c-.835,0-1.67,0-2.506-.013-1.564-.015-3.128-.031-4.69.04a10.707,10.707,0,0,1-5.919-1.258,10.145,10.145,0,0,0-2.813-.872c-2.332-.527-4.607-1.231-6.942-1.808a37.038,37.038,0,0,1-6.485-2.237c-.4-.158-.878-.03-1.069-.52a1.3,1.3,0,0,1,.13-1.367,2.4,2.4,0,0,1,2.233-.969.465.465,0,0,0,.236-.034c1.893-1.068,1.89-.343,3.813-.185l5.414.693a30.893,30.893,0,0,1,3.456.531c2.267.4,4.823.794,5.064.313-2.214,0-4.794-1.727-4.479-2.142a2.709,2.709,0,0,1,2.3-1.074,22.465,22.465,0,0,1,6.555.732,7.35,7.35,0,0,0,4.986-.265c2.757-1.1,5.719-1.463,8.318.227a31.887,31.887,0,0,1,8.565,7.588c2.7,3.671,4.006,4.509,6.961,7.97l-13.548.027A10.252,10.252,0,0,0,619.2,2067.923Zm-18.133-9.671-.356-.046a15.149,15.149,0,0,1,11.478-10.009c-.1-.173-.19-.34-.3-.516a2.866,2.866,0,0,1-.406-1.036,2.035,2.035,0,0,0,.018-.276c-.376-.471-.77-.937-1.192-1.386-.355-.411-.769-.768-1.154-1.136s-.827-.668-1.218-.99c-.42-.288-.847-.541-1.237-.787l-1.194-.548c-.39-.113-.746-.22-1.061-.311a4.067,4.067,0,0,0-.836-.133l-.731-.077s.262.046.723.13a4.009,4.009,0,0,1,.813.192c.3.113.643.24,1.017.377.345.192.723.4,1.118.618.365.271.76.542,1.146.85.358.341.759.658,1.109,1.043s.719.756,1.034,1.182a18.256,18.256,0,0,1,1.3,1.8c-.517.026-2.2-.2-2.932-.283a12.889,12.889,0,0,1-2.55-.594,11.591,11.591,0,0,1-2.431-1.147,12.762,12.762,0,0,1-3.555-3.394,15.846,15.846,0,0,0-1.239-1.57,6.918,6.918,0,0,0-.511-.484l-.214-.162s.049-.084.139-.239a2.618,2.618,0,0,1,.507-.6,5.351,5.351,0,0,1,2.376-1.152,8.011,8.011,0,0,1,3.3-.006,9.447,9.447,0,0,1,5.608,3.467,9,9,0,0,1,1.452,2.668,7.879,7.879,0,0,1,.425,2.461c0,.073-.01.144-.012.214.462.584.871,1.159,1.251,1.725a15.2,15.2,0,0,1,2.279-.177c.094,0,.181.021.274.022.108-.5.212-1,.306-1.541a3.75,3.75,0,0,1,.495-1.384,3.2,3.2,0,0,0,.257-.261c-.055,1.141-.169,2.229-.308,3.245.267.019.538.029.8.062.428-.652.914-1.336,1.456-2.018,0-.07-.016-.142-.013-.215a7.964,7.964,0,0,1,.426-2.462,9.071,9.071,0,0,1,1.45-2.668,9.478,9.478,0,0,1,5.609-3.467,8.043,8.043,0,0,1,3.3.006,5.357,5.357,0,0,1,2.375,1.152,2.666,2.666,0,0,1,.506.606c.091.155.139.241.139.241l-.216.159c-.133.1-.322.307-.509.483a15.877,15.877,0,0,0-1.24,1.572,12.742,12.742,0,0,1-3.554,3.393,11.558,11.558,0,0,1-2.43,1.147,12.994,12.994,0,0,1-2.552.593c-.735.088-2.414.311-2.933.287a19.521,19.521,0,0,1,1.3-1.8,15.559,15.559,0,0,1,1.038-1.179c.348-.388.748-.7,1.109-1.045.383-.308.777-.579,1.144-.85l1.119-.618c.372-.138.714-.266,1.018-.378a3.883,3.883,0,0,1,.811-.192l.724-.13-.731.078a3.944,3.944,0,0,0-.837.133l-1.063.311-1.193.547c-.39.249-.819.5-1.237.786-.39.324-.83.621-1.219.99a16.072,16.072,0,0,0-1.15,1.135c-.422.452-.817.916-1.193,1.387a2.066,2.066,0,0,0,.016.277,2.854,2.854,0,0,1-.406,1.034c-.161.263-.3.516-.445.769a15.14,15.14,0,0,1,11.624,9.405c-.351-.237-.7-.467-1.031-.683-2.7-1.759-6.033-1.9-9.833-.379a5.747,5.747,0,0,1-3.891.219,24.035,24.035,0,0,0-7.047-.8,4.332,4.332,0,0,0-3.6,1.728,1.76,1.76,0,0,0-.358.959A16.11,16.11,0,0,0,601.071,2058.251Zm11.544-15.824a17.108,17.108,0,0,1-2.021-2.808,15.145,15.145,0,0,1-1.418-3.258,16.813,16.813,0,0,1-.584-6.466,20.774,20.774,0,0,0,.133-2.643c-.034-.34-.04-.709-.087-.924s-.074-.348-.074-.348.12-.039.345-.115a3.346,3.346,0,0,1,1.031-.163,7.055,7.055,0,0,1,3.362.919,10.622,10.622,0,0,1,3.293,2.867,12.522,12.522,0,0,1,2.567,8.325,11.991,11.991,0,0,1-.878,3.92,10.6,10.6,0,0,1-1.718,2.818c-.061.076-.135.134-.2.2.038-.794.05-1.6.02-2.416,0-.717-.1-1.432-.159-2.135s-.242-1.382-.352-2.043c-.167-.652-.374-1.273-.547-1.859-.253-.562-.49-1.092-.71-1.582-.289-.45-.553-.864-.787-1.23a5.246,5.246,0,0,0-.717-.86c-.418-.455-.659-.714-.659-.714l.607.76a5.157,5.157,0,0,1,.643.9c.2.376.433.8.683,1.261.178.491.371,1.024.577,1.589.126.586.283,1.2.4,1.84.058.652.182,1.314.193,2a20.717,20.717,0,0,1,0,2.075,24.683,24.683,0,0,1-.275,2.923C614.748,2044.835,613.27,2043.154,612.616,2042.428Z" transform="translate(-588.65 -2025.7)" fill="#262626"/>
	</symbol>

	<symbol id="delivery"  viewBox="0 0 60 60" >
	
		 <path  d="M629.081,2179.4c.64.045,1.284.091,1.916.116a19.042,19.042,0,0,1-14.611,8.456c.3-.581.6-1.174.887-1.777a17.054,17.054,0,0,0,4.426-1.167.374.374,0,0,0,.039-.086,1.153,1.153,0,0,1,.214-.365l-.084-.211.186-.264a2.4,2.4,0,0,1,.34-.444c.131-.1,1.229-1.053,1.468-1.232.207-.164,1.119-.848,1.518-1.173.055-.043.1-.086.135-.113a7.542,7.542,0,0,0,.943-1.159,5.827,5.827,0,0,0,.354-.793h0C627.57,2179.268,628.33,2179.34,629.081,2179.4Zm-18.612,1.292c-.072-.011.021.039.082.072A.115.115,0,0,0,610.469,2180.688Zm14.288-1.34a4.622,4.622,0,0,0,.626,0h.056a1.346,1.346,0,0,0,.63-.238l.022-.012h0c-.232-.03-.471-.059-.7-.092s-.466-.063-.7-.1c.165.128.277.234.231.253C624.783,2179.215,624.547,2179.321,624.756,2179.348Zm-14.2,1.412a.01.01,0,0,1,0,.007C610.622,2180.8,610.595,2180.783,610.552,2180.759Zm5.919-14.154.028.032C616.515,2166.609,616.471,2166.605,616.471,2166.605Zm6.322,4.177h-.041l-.036.151c-.167.612-.335,1.233-.512,1.852.143,0,.277.016.277.016a.4.4,0,0,0,.2-.272,1.912,1.912,0,0,1,.159-.429l.112.023a.728.728,0,0,0,.1-.342c0-.281-.125-.344-.125-.5a5.117,5.117,0,0,1,.061-.531Zm-.835,2.835-.084.284.129-.023.079.216c.031-.069.05-.122.05-.122a1.308,1.308,0,0,0-.044-.27C622.083,2173.673,622.024,2173.643,621.958,2173.618Zm1.639-6.016-.041-.021c-.092.378-.177.755-.274,1.128.066.041.019.053.284.064a3.433,3.433,0,0,0,.4.02c.282,0,.327.034.377-.085s.065.065.065-.246a.613.613,0,0,0-.246-.528A2.419,2.419,0,0,0,623.6,2167.6Zm17.993,8.4c-.844,3.156-10.019,3.533-21.66,1.2-3.811,11.273-8.724,19.05-11.871,18.207-1.985-.534-2.868-4.391-2.668-10.094.069.036.137.078.2.112a19.092,19.092,0,0,1-9.471-15.289c.553.289,1.115.566,1.686.844,2.039.978,4.178,1.872,6.348,2.671h-.006l.006.114-.312.554-.289.181.079.131.052.262h-.16v.578c0,.21.421.289.421.289l-.131.083a1.231,1.231,0,0,0,.158.341,2.549,2.549,0,0,1,.288.576c.053.184.131.7.131.7s.344.578.5.82a8.6,8.6,0,0,1,.6.814c.131.263.419.131.968.263a2.149,2.149,0,0,1,.784.314,5.154,5.154,0,0,0,.474.342,1.728,1.728,0,0,0,.863.1c.477,0,.166.028.748.118l.094.013c.7.1.146.053.812.359l.027.012c.163.072.249.106.3.131a2.143,2.143,0,0,1,.046.444c.027.131.211-.026.342-.026.1,0,.124.078.238.151a.552.552,0,0,0,.128.059c.235.078.287-.078.287-.078l.265.314.21.289-.21.5-.183.183a1.863,1.863,0,0,0,0-.425c-.029-.181-.184.084-.184.084l-.157.5.574.554.174.156.376.345.024.067.214.617-.029.209.131.345a2.028,2.028,0,0,1-.316.1.7.7,0,0,1-.155.026c-.078,0-.169.091-.245.183a1.761,1.761,0,0,0-.148.21,2.089,2.089,0,0,0,.148.239.915.915,0,0,0,.193.208c.036.03.07.042.1.07.029,0,.056.011.084.014a.229.229,0,0,1-.019.033h0l-.078.134h0c-.228.394-.514.879-.845,1.393a19.134,19.134,0,0,1-5.5-1.98l.01,0c.051,3.444.694,5.677,1.953,6.015,2.383.64,6.247-5.723,9.438-15.03q-2.012-.45-4.086-1.012c-14.6-3.924-25.635-10.132-24.637-13.865.533-1.99,4.374-2.874,10.062-2.674-.065.112-.128.229-.189.34a19.038,19.038,0,0,1,16.667-9.672c-.115,0-.233-.005-.351,0,2.67-5.035,5.359-7.933,7.341-7.4,3.723,1,3.571,13.687-.343,28.325-.365,1.387-.76,2.741-1.164,4.055,9.635,1.885,17.058,1.712,17.706-.679.337-1.26-1.273-2.933-4.222-4.7v-.023a19.234,19.234,0,0,1-1.041,5.775c-.609.033-1.169.034-1.622.034h0c-.369,0-.659-.006-.83-.012-.5-.019-.991-.041-1.491-.078a6.085,6.085,0,0,0,.179-.661,3.006,3.006,0,0,1,.115-.407l-.586-.134-.068-.384-.246-.044-.227.433a1.32,1.32,0,0,1-.383.379,1.373,1.373,0,0,1-.471.135l.065-.311a.618.618,0,0,0-.336.042l-.025-.3s-.134-.3-.246-.314-.295-.272-.295-.272a1.224,1.224,0,0,1-.134-.273.113.113,0,0,0-.02-.018l.033-.155s.213-.237.39-.447.235.209.417.362a.4.4,0,0,1,.12.386.644.644,0,0,0,.268.061.234.234,0,0,1,.21.118l.3.119.3-.331a.289.289,0,0,1,.268-.209c.209,0,.033.268.033.422s.149,0,.566-.18a4.035,4.035,0,0,0,.626-.361c.39-.209.181-.15.327-.269a2.821,2.821,0,0,0,.271-.239l.327.214.361-.062.361-.211v.273s-.238.3-.092.5.178.15.092.42a.48.48,0,0,0,0,.422.85.85,0,0,1,.031.19,17.441,17.441,0,0,0-6.139-19q.079-1,.122-1.99a19.136,19.136,0,0,1,8.472,15.9c0-.087,0-.173,0-.262C639.233,2171.317,642.122,2174.01,641.59,2176Zm-22.846-20.782s.189-.106.282-.149,0-.052-.094-.118-.215.052-.215.052a.62.62,0,0,0-.106.173.112.112,0,0,1-.014.027c-.051.063-.107-.1-.12-.186s-.361-.03-.349-.03a.965.965,0,0,1,.081.174,2.144,2.144,0,0,1,.028.229.512.512,0,0,0,.053.269,1.329,1.329,0,0,0,.2.2l.107-.069.039-.027.162-.269.134-.12Zm-2.144-1.19s.022-.19.126-.166.21-.253.21-.253-.086-.168-.188-.168-.337.023-.337.023l-.064-.128a.627.627,0,0,0-.294.042.147.147,0,0,1-.213-.084l-.021-.253-.233.064-.167-.148s-.062-.127.041-.127a2.118,2.118,0,0,1,.251.022l.212-.148-.084-.167.146-.167s-.293-.151-.358-.04a.747.747,0,0,1-.3.188s.022-.064-.1-.233.062-.253-.212-.19a.985.985,0,0,0-.37.177.787.787,0,0,0-.093.075s-.3.063-.312.168.357.168.357.168a.494.494,0,0,1,.048-.056c.055-.061.157-.145.227-.07a1.64,1.64,0,0,1,.188.233l-.4.209-.016-.013-.2-.156h-.4l-.188.084-.379.042a1.257,1.257,0,0,1,.064.3c0,.108-.167.213-.167.213l-.225-.021-.029,0-.233.168a.887.887,0,0,0-.358.1.1.1,0,0,1-.054.028c-.1.026-.2-.04-.2.1,0,.168.02.253-.1.275-.029.007-.062.013-.1.019l-.3.066a.98.98,0,0,0-.233.168.965.965,0,0,1-.337.168l-.034-.01-.386-.078-.546.234-.016.034-.111.264-.359.042s-.3.147-.315.251a.268.268,0,0,1-.118.138.53.53,0,0,1-.093.053,1.716,1.716,0,0,0-.316.166,1.826,1.826,0,0,0-.232.251l-.087.19.15.214-.336.04.04.168c.168.168.275.252.379.168s.041-.151.166-.191c.075-.027.209-.072.324-.113.084-.031.161-.058.2-.078.1-.04.274-.188.4-.188a1.7,1.7,0,0,0,.252-.021l.05-.04.287-.233.337.15.274-.042a.2.2,0,0,0,.049.122.193.193,0,0,0,.079.044,1.216,1.216,0,0,0,.314.042.355.355,0,0,1,.252-.149h.376l.043-.189.237.111.034.016.19.147s-.084.022.126.106a.487.487,0,0,0,.323.01.509.509,0,0,0,.078-.032l.359.084s.023-.337-.085-.337a1.018,1.018,0,0,1-.314-.1l.231-.084.252-.042.064.276.4-.128-.062-.232.021-.36.378.063.023.252a.789.789,0,0,0,.155.051c.089.025.182.028.182-.051,0-.148-.084-.252.021-.252a1.613,1.613,0,0,0,.317-.063l.1-.15.149-.338.166.255.233-.149-.043-.213.5-.233s.3-.042.425-.042a.257.257,0,0,0,.165-.038s.084-.17-.042-.17A.34.34,0,0,1,616.6,2154.031Zm-5.029,8.166-.21.1.485.233.238.012.178.01a1.225,1.225,0,0,0,.15-.423.217.217,0,0,1,.072-.171c.043-.033.108-.056.2-.125.166-.125.128-.168.086-.295-.034-.1-.2-.084-.287-.072l-.051.007-.349.174-.03.016-.167-.212-.233.063-.231.234c-.023-.022.15.022.15.022a.566.566,0,0,1,.232,0c.167.023-.041.168-.041.168l-.337.085Zm.8-4.936-.288.019h-.008a1.17,1.17,0,0,0,.008.479.3.3,0,0,0,.013.032.5.5,0,0,0,.388.269.761.761,0,0,0,.287-.017c.187-.04.245-.052.255-.052L613,2158s.037-.01.026-.01l.129-.05.164-.066s.271-.166.271-.315-.233-.1-.421-.1h-.014c-.172,0-.158-.027-.238-.233s-.085.124-.085.124-.084-.019-.166-.209a1.34,1.34,0,0,1-.105-.337l-.075.038-.238.128.062.127Zm-.212,6.052s.085.1.212.277c.053.072.088.048.112,0,.034-.065.058-.169.116-.169.1,0,.023.169.149.148a3.663,3.663,0,0,1,.4-.022l.008.009.182.2s.211-.1.231-.212.023-.1.19-.1.105-.022.316-.191-.064-.313-.233-.4-.024-.232-.024-.232l.024-.3a1.758,1.758,0,0,0-.024-.253c-.021-.147-.062-.253-.083-.4a.125.125,0,0,0-.167-.1v-.191a1.871,1.871,0,0,0,.422-.042c.1-.04,0-.253,0-.253s-.25-.1-.44-.167-.064-.1.252-.125.042-.168.042-.168l-.252-.148a.873.873,0,0,1-.337.253.279.279,0,0,0-.1.059c-.075.073-.026.16-.091.258v.166l.091.157.056.1a1.335,1.335,0,0,1-.056.179.649.649,0,0,1-.07.137c-.085.127.041.276.041.276a2.111,2.111,0,0,1-.041.424c-.041.147-.361-.129-.361-.129l-.062.36h-.292l.042.191.072.055.116.092.125.191-.241-.088-.114-.038Zm-3.3-9.513-.359.38a1.78,1.78,0,0,0,.422.04,2.048,2.048,0,0,0,.408-.246c.128-.088.255-.174.351-.237.233-.149.316-.1.316-.1l.085.167-.506.3.59-.085.07-.066.227-.209.233-.275.358.022.134-.049.306-.117a1.307,1.307,0,0,0,.361-.359c.081-.149.137-.064.237-.041a.175.175,0,0,0,.1,0c.166-.04.085-.19.085-.337,0-.072.1-.078.22-.077a.691.691,0,0,0,.329-.031c.125-.086-.105-.252-.274-.3l-.055-.012c-.133-.032-.2-.047-.22-.177-.013-.076-.091-.1-.181-.1a.5.5,0,0,0-.239.075c-.125.086-.376.1-.3-.062.012-.027.034-.035.044-.053a17.716,17.716,0,0,0-1.951.529c.146,0,.209.008.3.008.126,0-.126.149-.126.149a2.639,2.639,0,0,0-.485.212l-.012.012a.233.233,0,0,0-.049.222h.049a1.7,1.7,0,0,0,.265-.022,1.506,1.506,0,0,0,.461-.233c.089-.053.14-.083.175-.1a.938.938,0,0,0,.182-.071c.146-.088.04.231.04.231l.4-.148.324-.014.118-.007.126-.233-.244-.052-.134-.032.127-.126h.007a4.847,4.847,0,0,1,.539.024c.128.019,0,.167,0,.167l-.04.166-.147.275s-.19.023-.337.023h-.016a.6.6,0,0,0-.3.168l-.3.21h-.423l-.064.233-.337-.04a1.367,1.367,0,0,1-.062-.253c-.023-.15-.168,0-.168,0a.736.736,0,0,1-.2.358.2.2,0,0,1-.093.042A.782.782,0,0,0,608.859,2153.8Zm4.584-2.233c-.181.017-.361.034-.54.056.023,0,.04.014.1.025.125.021.021.062.021.166,0,.069.03.1.134.116.053.009.125.019.227.033.3.041.1-.087.062-.337A.2.2,0,0,1,613.443,2151.566Zm-1.135.248a.611.611,0,0,0,.04-.107c-.032.006-.061.009-.091.014A.166.166,0,0,1,612.308,2151.814Zm2.411-.331a.311.311,0,0,0-.034.165c.023.188.064,0,.19-.042a.137.137,0,0,0,.108-.125C614.9,2151.479,614.812,2151.482,614.719,2151.482Zm-12.332,5.589.265.018.337-.211.336.1-.19.088a2.673,2.673,0,0,0-.231.4c-.044.125.5.1.5.1a2.627,2.627,0,0,0,.146-.568c0-.166.442-.275.442-.275l.125-.337.213.15a.811.811,0,0,0,.1-.337c-.024-.105-.4-.128-.4-.128l.376-.189.379.1-.086.737h.378l.085.128a3.568,3.568,0,0,1-.632.293c-.1,0-.336.277-.336.277l-.209.233a.46.46,0,0,0,.251.168c.166.039.166.147.166.147s.233-.084.233-.211a.176.176,0,0,0-.085-.166l.315-.36c.124-.149.8-.443.926-.592s.04-.251.04-.251l.315-.191s.085-.4.126-.5a5.906,5.906,0,0,1,.8-.549,1.577,1.577,0,0,1,.777-.359c.423-.106.128-.151.1-.277s-.358.169-.358.169l-.5-.15a.742.742,0,0,0,.421-.167c.213-.167.168-.042.315-.1s.105-.128.105-.128h.231a2.394,2.394,0,0,0,.3-.358c.1-.166.336-.486.336-.486s-.525.3-.632.337-.273-.04-.4-.04-.314.209-.527.294-.442.213-.442.213l-.313-.062-.252.1-.611.253a3.186,3.186,0,0,1,.36-.232c.252-.151.5-.3.5-.3l.4-.1.033-.207c-.161.087-.32.166-.483.259A17.669,17.669,0,0,0,602.387,2157.071Zm15.835,17.168c.424-1.351.832-2.749,1.215-4.188,3.409-12.741,3.8-23.707.885-24.49-1.257-.338-2.924,1.273-4.687,4.23h-.056a19.1,19.1,0,0,1,5.793,1.044c.034.61.037,1.173.036,1.627h0c0,.368-.006.662-.012.834-.058,1.6-.2,3.24-.413,4.891a1.02,1.02,0,0,0-.246-.053c-.226-.016-.232,0-.229,0a1.459,1.459,0,0,1-.259-.28.793.793,0,0,0-.471-.3c-.262-.09-.243.1-.243.1a.9.9,0,0,1-.558.14c-.3-.035-.375.3-.38.328h0l-.226.194s-.121.209-.262.209a.861.861,0,0,0-.243.034,2.19,2.19,0,0,0-.068.4.163.163,0,0,1-.14.16,1.671,1.671,0,0,0-.3.087,3.672,3.672,0,0,0-.366.191c-.121.069-.07.122-.313.262s-.33.191-.33.191l-.33.069.171.174-.26.053a.824.824,0,0,0,.016.278c.033.122.3.14.3.14a1.886,1.886,0,0,1-.385.229c-.21.089-.21.12-.192.209s.139.279.486.366.1-.017.26-.1a1.868,1.868,0,0,1,.33-.14,1.618,1.618,0,0,1,.214.505c0,.156-.053.453-.034.56s.19-.035.19-.035l-.156.173s.033.313.033.4.31.034.31-.052.171-.229.433-.243.228-.051.228-.261a3.307,3.307,0,0,1,.052-.489l.3-.088s.17-.128.282-.234a.547.547,0,0,0,.069-.08c.036-.056-.006-.112-.069-.166s-.118-.09-.161-.128a.983.983,0,0,1-.121-.542.689.689,0,0,1,.02-.227c.016-.111.146-.12.262-.148l.033-.01c.122-.035.277-.243.5-.349s-.122-.122-.122-.122.036-.191.07-.35.486.053.486.053l.174.208-.209.158-.24.364-.348.454.279.73a.921.921,0,0,0,.4.1.842.842,0,0,0,.435-.19,2.256,2.256,0,0,1,.509-.15l-.081.488c-.079.032-.168-.033-.366-.033-.273,0-.344.125-.591.148s-.1.2-.1.322.346.272.346.272l-.271.172s-.125-.271-.368-.246-.148.345-.3.469.1.5.1.5a1.022,1.022,0,0,0-.34.112c-.019.013-.037.022-.056.034-.172.121-.221.026-.221.026s-.1-.149-.221-.149-.3.2-.424.244a1.939,1.939,0,0,1-.542,0l-.273-.3-.226.226a.681.681,0,0,1-.321-.2c-.118-.149,0-.121-.025-.247s-.073-.123-.073-.123l.123-.2.321-.2a1.071,1.071,0,0,0-.075-.64c-.15-.2-.15.2-.15.2l-.494.32.027.669-.1.3-.192-.046-.123.148a2.215,2.215,0,0,0-.319-.148c-.2-.075-.544.246-.544.246l-.044.11-.079.185-.271-.05-.148.174h-.3c-.126,0-.048.221-.048.221a.55.55,0,0,1-.182.136l-.043-.057a.267.267,0,0,0-.268.072.43.43,0,0,1-.158.068c-.07.016-.131.023-.131.023l-.126-.323s-.089-.165-.177-.035a.241.241,0,0,0-.056.216l.037.219-.18.017-.035-.011-.089-.026-.311-.188-.047-.027s-.215-.037-.177.105.215.323.215.414a.031.031,0,0,0,.012.024c.054.063.312.043.312.159s-.164.271-.164.271a.382.382,0,0,1,.126.27,1.928,1.928,0,0,1-.073.5c-.035.107-.125.072-.161.182a.75.75,0,0,1-.043.087,1.4,1.4,0,0,1-.135.182.937.937,0,0,1-.361.035c-.093-.035-.164-.165-.324-.2a.231.231,0,0,0-.088-.006c-.062.008-.073.042-.233-.067a1.92,1.92,0,0,0-.432-.251.436.436,0,0,1-.215-.179s-.029-.018-.066-.036a.6.6,0,0,0-.222-.088c-.091,0-.233.163-.233.163a.869.869,0,0,1,0,.323c-.034.179.034.271-.072.342s-.126.017-.143.163.072.072-.072.216-.07.128-.163.194a.351.351,0,0,0-.035.024c-.146.091-.2.072-.289.217a.819.819,0,0,0-.125.432c0,.125.393.574.393.574l.056.017c.062.019.163.063.163.147,0,.128-.147.181,0,.272s.072.106.161.163a4.683,4.683,0,0,0,.581.142c.294.057.586.11.586.11l.2-.144h.341l.089-.306.27-.017.019-.291s-.035-.288.053-.288a1.164,1.164,0,0,0,.3-.15c.125-.077.239-.157.239-.157s.069.015.161.028a.7.7,0,0,0,.378-.01,2.634,2.634,0,0,0,.289-.361.773.773,0,0,1,0-.328.066.066,0,0,1,.065-.048,1.109,1.109,0,0,1,.594.127.883.883,0,0,0,.484.233,1.188,1.188,0,0,0,.35-.186l.044-.033c.038-.028.146-.1.262-.19a.111.111,0,0,0,.008.013s.251.034.323.163a.811.811,0,0,1,.072.5c-.035.141.233.269.323.376s.524.684.665.863.432.5.432.5l.143.344-.3.216a2.738,2.738,0,0,1-.433-.055.2.2,0,0,0-.2.072,1.221,1.221,0,0,1-.234-.179c-.163-.145-.052.019-.252.127s.252.269.362.359a2.906,2.906,0,0,1,.319.345c.072.089.252-.033.252-.18a2.014,2.014,0,0,1,.019-.27h.321l.2-.233.165-.143.072-.2-.126-.36a1.636,1.636,0,0,1,.3-.072c.094,0,.181.27.181.27l.093.036a.808.808,0,0,0-.055-.306,2.073,2.073,0,0,0-.341-.305,2.786,2.786,0,0,1-.418-.2,4.055,4.055,0,0,1-.411-.646c-.106-.2-.033-.219-.053-.306s-.2-.2-.271-.321a.579.579,0,0,1-.05-.306s.162-.108.341-.216c.064-.038.1-.066.1-.081.072.074.258.29.258.421a1.49,1.49,0,0,0,.107.45c.036.105.251.2.539.251s.2.251.2.251a1.59,1.59,0,0,1,.3.541c.033.216.033.324.053.594s.146.3.232.561.123.249.179.445c.025.092.042.183.075.273q-.266.99-.565,1.993a2.031,2.031,0,0,0-.288.727.513.513,0,0,1-.132.052h0l-.374-.091h0c-.187-.2-.625-.285-.854-.434s-.235-.5-.421-.658-.315-.078-.315-.078a1.744,1.744,0,0,1-.63-.237c-.056-.071-.15-.177-.225-.261s-.118-.131-.118-.131a1.4,1.4,0,0,1,.118-.1.728.728,0,0,1,.249-.159c.131-.028-.052-.292-.21-.554s.42-.342.393-.473-.277-.131-.432-.2l-.013,0a1.072,1.072,0,0,0-.523,0l-.5-.1s-.158.05-.289.1a.213.213,0,0,1-.169-.022.636.636,0,0,1-.3-.3c-.072-.144-.22-.113-.369-.123a.475.475,0,0,1-.208-.059.327.327,0,0,0-.192-.056c-.115,0-.222.065-.359.085-.171.022-.4.078-.549.1a.409.409,0,0,1-.081.01,1.145,1.145,0,0,0-.472.209c-.184.1-.234-.29-.234-.29a1.025,1.025,0,0,1-.16-.018,2.618,2.618,0,0,1-.472-.139c-.393-.16-.211-.4-.211-.4s-.072.059-.221.19c-.05.042-.1.095-.169.152-.263.234-.342.341-.578.315a.819.819,0,0,0-.523.158,2.951,2.951,0,0,0-.513.723,63.138,63.138,0,0,1-9.007-3.824c-.121-.066-.318-.173-.56-.31v0c-.415-.234-.965-.563-1.553-.94a19.161,19.161,0,0,1,2.008-5.573.278.278,0,0,0-.037.069c-3.435.05-5.663.7-6,1.953-.78,2.927,8.89,8.065,21.6,11.483C615.429,2173.589,616.842,2173.932,618.222,2174.24Zm-3.862-5.383c-.087.034-.087.23-.087.23a.312.312,0,0,0,.159.1.512.512,0,0,0,.219-.015c.041-.009.094-.021.152-.038.172-.051.068-.14.1-.262a1.646,1.646,0,0,1,.1-.406c.07-.122-.142-.212-.142-.212s-.163.23-.222.322l-.006.012A.813.813,0,0,1,614.36,2168.856Zm.289-.943c.094-.018.3-.075.346-.185.05-.141.034-.069.088-.229s-.142.053-.142.053l-.23.14-.062.136-.041.093A.153.153,0,0,0,614.649,2167.914Z" transform="translate(-588.647 -2142.325)" fill="#262626"/>
	</symbol>

	<symbol id="organized" viewBox="0 0 46 46">	
	  <path d="M629.731,2279.985l-4.873-4.872a10.731,10.731,0,0,0-16.946,2.334l-5.353,9.509,5.809,9.575-8.347-5.063-11.773,20.943a3.081,3.081,0,0,0,2.658,4.59,3.125,3.125,0,0,0,1.518-.408l9.151-5.142-3.072-5.7,6.745,3.635,18.806-10.565-5.16-9.011,10.279,5.885A10.752,10.752,0,0,0,629.731,2279.985Z" transform="translate(-587.837 -2271.97)" fill="#262626"/>
	</symbol>






</svg>