<svg 
 xmlns="http://www.w3.org/2000/svg"
 xmlns:xlink="http://www.w3.org/1999/xlink">
	<symbol id="finger-up">
	<path fill-rule="evenodd"  fill="rgb(0, 162, 255)"
	d="M61.586,28.656 C61.586,29.313 61.491,29.922 61.305,30.484 C61.116,31.047 60.834,31.563 60.461,32.031 C60.085,32.501 59.663,32.875 59.195,33.156 C58.725,33.437 58.211,33.672 57.648,33.859 C57.930,34.329 58.163,34.822 58.351,35.336 C58.538,35.852 58.633,36.439 58.633,37.094 C58.633,37.656 58.538,38.219 58.351,38.781 C58.163,39.344 57.930,39.860 57.648,40.328 C57.273,40.704 56.851,41.055 56.383,41.383 C55.912,41.712 55.445,41.969 54.977,42.156 C55.258,42.626 55.491,43.140 55.680,43.703 C55.866,44.266 55.961,44.828 55.961,45.391 C55.961,46.047 55.866,46.634 55.680,47.148 C55.491,47.665 55.258,48.157 54.977,48.625 C54.601,49.095 54.179,49.493 53.711,49.820 C53.241,50.150 52.726,50.361 52.164,50.453 C52.538,50.923 52.819,51.416 53.008,51.929 C53.195,52.446 53.289,53.033 53.289,53.687 C53.289,54.344 53.148,55.001 52.867,55.656 C52.586,56.313 52.210,56.876 51.742,57.344 C51.180,57.814 50.569,58.187 49.914,58.469 C49.257,58.750 48.554,58.890 47.805,58.890 L29.242,58.890 C28.585,58.890 27.836,58.798 26.992,58.609 C26.148,58.423 25.256,58.141 24.320,57.766 C23.382,57.484 22.444,57.133 21.508,56.711 C20.570,56.289 19.631,55.891 18.695,55.515 C17.570,55.047 16.467,54.580 15.391,54.109 C14.312,53.641 13.538,53.406 13.070,53.406 L0.273,53.406 L0.273,25.984 L1.398,25.844 C6.742,25.844 10.398,25.844 12.367,25.844 C13.211,25.844 13.984,25.751 14.687,25.562 C15.391,25.376 16.116,25.000 16.867,24.437 C17.711,23.969 18.671,23.312 19.750,22.469 C20.827,21.625 22.116,20.594 23.617,19.375 C26.522,16.938 28.234,13.890 28.750,10.234 C29.264,6.578 29.523,4.469 29.523,3.906 C29.523,3.344 29.664,2.805 29.945,2.289 C30.226,1.775 30.600,1.375 31.070,1.094 C31.538,0.720 32.030,0.461 32.547,0.320 C33.061,0.179 33.553,0.109 34.023,0.109 C34.773,0.109 35.522,0.204 36.273,0.390 C37.023,0.579 37.726,1.001 38.383,1.656 C39.038,2.313 39.554,3.181 39.930,4.258 C40.303,5.337 40.492,6.767 40.492,8.547 C40.492,10.142 40.373,11.665 40.141,13.117 C39.906,14.572 39.600,15.954 39.226,17.266 C38.945,18.579 38.594,19.775 38.172,20.851 C37.750,21.930 37.398,22.844 37.117,23.594 L56.242,23.594 C57.086,23.594 57.811,23.712 58.422,23.945 C59.031,24.180 59.617,24.532 60.180,25.000 C60.648,25.470 60.999,26.009 61.234,26.617 C61.467,27.228 61.586,27.907 61.586,28.656 L61.586,28.656 L61.586,28.656 ZM56.242,31.609 C56.710,31.609 57.132,31.539 57.508,31.398 C57.881,31.258 58.163,31.047 58.351,30.765 C58.633,30.484 58.866,30.181 59.055,29.852 C59.241,29.524 59.336,29.126 59.336,28.656 C59.336,27.907 59.055,27.250 58.492,26.687 C57.930,26.125 57.178,25.844 56.242,25.844 L47.805,25.844 C47.805,25.938 47.805,25.938 47.805,25.844 L33.320,25.844 L34.164,24.156 C36.788,17.687 38.102,12.484 38.102,8.547 C38.102,5.453 37.585,3.649 36.555,3.133 C35.522,2.618 34.678,2.359 34.023,2.359 C33.742,2.359 33.320,2.500 32.758,2.781 C32.195,3.062 31.914,3.438 31.914,3.906 C31.914,4.469 31.866,5.407 31.773,6.719 C31.679,8.033 31.398,9.531 30.930,11.219 C30.459,12.906 29.780,14.642 28.891,16.422 C27.999,18.204 26.757,19.751 25.164,21.062 C23.569,22.376 22.233,23.477 21.156,24.367 C20.077,25.259 19.069,25.984 18.133,26.547 C17.194,27.109 16.256,27.531 15.320,27.812 C14.382,28.094 13.398,28.234 12.367,28.234 C11.616,28.234 10.796,28.234 9.906,28.234 C9.014,28.234 8.100,28.234 7.164,28.234 C6.320,28.234 5.498,28.234 4.703,28.234 C3.905,28.234 3.227,28.234 2.664,28.234 L2.664,51.016 L13.070,51.016 C13.725,51.016 14.593,51.226 15.672,51.648 C16.748,52.070 18.084,52.611 19.680,53.265 C20.429,53.641 21.248,54.039 22.141,54.461 C23.030,54.883 23.898,55.234 24.742,55.515 C25.678,55.797 26.522,56.056 27.273,56.289 C28.023,56.524 28.680,56.641 29.242,56.641 L44.851,56.641 L47.805,56.641 C48.273,56.641 48.695,56.548 49.070,56.359 C49.444,56.172 49.773,55.937 50.055,55.656 C50.336,55.469 50.547,55.188 50.687,54.812 C50.828,54.439 50.898,54.063 50.898,53.687 C50.898,53.219 50.828,52.822 50.687,52.492 C50.547,52.165 50.336,51.859 50.055,51.578 C49.773,51.297 49.444,51.086 49.070,50.945 C48.695,50.805 48.273,50.734 47.805,50.734 L47.523,50.734 L47.523,48.344 L50.758,48.344 C51.131,48.344 51.507,48.273 51.883,48.133 C52.256,47.992 52.586,47.781 52.867,47.500 C53.054,47.219 53.241,46.891 53.430,46.516 C53.616,46.142 53.711,45.766 53.711,45.391 C53.711,45.017 53.616,44.641 53.430,44.266 C53.241,43.892 53.054,43.562 52.867,43.281 C52.586,43.094 52.256,42.907 51.883,42.719 C51.507,42.532 51.131,42.437 50.758,42.437 L49.773,42.437 L49.773,40.047 L53.289,40.047 C53.663,40.047 54.038,39.976 54.414,39.836 C54.788,39.695 55.117,39.484 55.398,39.203 C55.680,38.922 55.912,38.594 56.102,38.219 C56.288,37.845 56.383,37.469 56.383,37.094 C56.383,36.626 56.288,36.204 56.102,35.828 C55.912,35.454 55.680,35.173 55.398,34.984 C55.117,34.703 54.788,34.470 54.414,34.281 C54.038,34.094 53.663,34.000 53.289,34.000 L52.164,34.000 L52.164,31.609 L56.242,31.609 L56.242,31.609 L56.242,31.609 L56.242,31.609 L56.242,31.609 Z"/>
	</symbol>

	<symbol id="selected"
	width="60px" height="62px">
	<path fill-rule="evenodd"  fill="rgb(255, 99, 99)"
	d="M30.000,0.547 C34.124,0.547 38.016,1.320 41.672,2.867 C45.328,4.414 48.514,6.548 51.234,9.265 C53.952,11.986 56.086,15.172 57.633,18.828 C59.180,22.484 59.953,26.376 59.953,30.500 C59.953,34.626 59.180,38.515 57.633,42.172 C56.086,45.828 53.952,49.016 51.234,51.734 C48.514,54.454 45.328,56.586 41.672,58.133 C38.016,59.679 34.124,60.453 30.000,60.453 C25.873,60.453 21.984,59.679 18.328,58.133 C14.672,56.586 11.484,54.454 8.766,51.734 C6.045,49.016 3.914,45.828 2.367,42.172 C0.820,38.515 0.047,34.626 0.047,30.500 C0.047,26.376 0.820,22.484 2.367,18.828 C3.914,15.172 6.045,11.986 8.766,9.265 C11.484,6.548 14.672,4.414 18.328,2.867 C21.984,1.320 25.873,0.547 30.000,0.547 L30.000,0.547 ZM30.000,58.062 C33.843,58.062 37.429,57.337 40.758,55.883 C44.084,54.430 47.016,52.486 49.547,50.047 C51.984,47.516 53.928,44.587 55.383,41.258 C56.835,37.931 57.562,34.345 57.562,30.500 C57.562,26.657 56.835,23.071 55.383,19.742 C53.928,16.415 51.984,13.484 49.547,10.953 C47.016,8.516 44.084,6.572 40.758,5.117 C37.429,3.665 33.843,2.937 30.000,2.937 C26.155,2.937 22.569,3.665 19.242,5.117 C15.913,6.572 12.984,8.516 10.453,10.953 C8.014,13.484 6.070,16.415 4.617,19.742 C3.163,23.071 2.437,26.657 2.437,30.500 C2.437,34.345 3.163,37.931 4.617,41.258 C6.070,44.587 8.014,47.516 10.453,50.047 C12.984,52.486 15.913,54.430 19.242,55.883 C22.569,57.337 26.155,58.062 30.000,58.062 L30.000,58.062 ZM45.047,19.812 C45.328,19.439 45.726,19.250 46.242,19.250 C46.756,19.250 47.202,19.439 47.578,19.812 C47.859,20.188 48.000,20.634 48.000,21.148 C48.000,21.665 47.811,22.062 47.437,22.344 L26.906,42.312 C26.812,42.501 26.647,42.618 26.414,42.664 C26.179,42.712 25.968,42.734 25.781,42.734 C25.500,42.734 25.241,42.712 25.008,42.664 C24.773,42.618 24.608,42.501 24.516,42.312 L16.500,34.297 C16.124,33.923 15.938,33.477 15.938,32.961 C15.938,32.447 16.124,32.047 16.500,31.765 C16.781,31.392 17.179,31.203 17.695,31.203 C18.209,31.203 18.655,31.392 19.031,31.765 L25.781,38.515 L45.047,19.812 L45.047,19.812 Z"/>
	</symbol>

	<symbol id="big-search" width="58px" height="57px">
		<path fill-rule="evenodd"  fill="rgb(84, 116, 253)"
		d="M57.266,53.812 L54.312,56.766 L38.000,40.453 C37.062,41.297 36.031,42.048 34.906,42.703 C33.781,43.360 32.608,43.922 31.391,44.391 C30.171,44.861 28.881,45.212 27.523,45.445 C26.163,45.680 24.827,45.797 23.516,45.797 C20.327,45.797 17.350,45.188 14.586,43.969 C11.820,42.751 9.405,41.110 7.344,39.047 C5.280,36.986 3.663,34.571 2.492,31.805 C1.319,29.040 0.734,26.109 0.734,23.016 C0.734,19.830 1.319,16.852 2.492,14.086 C3.663,11.322 5.280,8.907 7.344,6.844 C9.405,4.783 11.820,3.165 14.586,1.992 C17.350,0.821 20.327,0.234 23.516,0.234 C26.609,0.234 29.538,0.821 32.305,1.992 C35.069,3.165 37.484,4.783 39.547,6.844 C41.608,8.907 43.249,11.322 44.469,14.086 C45.686,16.852 46.297,19.830 46.297,23.016 C46.297,24.329 46.178,25.665 45.945,27.023 C45.710,28.383 45.359,29.673 44.891,30.890 C44.420,32.110 43.858,33.281 43.203,34.406 C42.546,35.531 41.797,36.564 40.953,37.500 L57.266,53.812 L57.266,53.812 ZM3.125,23.016 C3.125,25.828 3.639,28.454 4.672,30.890 C5.702,33.329 7.155,35.485 9.031,37.359 C10.905,39.236 13.085,40.712 15.570,41.789 C18.053,42.868 20.703,43.406 23.516,43.406 C26.328,43.406 28.952,42.868 31.391,41.789 C33.827,40.712 35.983,39.236 37.859,37.359 C39.734,35.485 41.210,33.329 42.289,30.890 C43.366,28.454 43.906,25.828 43.906,23.016 C43.906,20.203 43.366,17.555 42.289,15.070 C41.210,12.587 39.734,10.408 37.859,8.531 C35.983,6.657 33.827,5.204 31.391,4.172 C28.952,3.141 26.328,2.625 23.516,2.625 C20.703,2.625 18.053,3.141 15.570,4.172 C13.085,5.204 10.905,6.657 9.031,8.531 C7.155,10.408 5.702,12.587 4.672,15.070 C3.639,17.555 3.125,20.203 3.125,23.016 L3.125,23.016 Z"/>
	</symbol>
</svg>